<svg xmlns="http://www.w3.org/2000/svg" width="1200" height="290" viewBox="0 0 1200 290" role="img" aria-labelledby="title desc">
  <title id="title">Ibrahim Alobaid engineering overview</title>
  <desc id="desc">A visual summary of Ibrahim's engineering portfolio and primary programming languages.</desc>
  <defs>
    <linearGradient id="surface" x1="0" y1="0" x2="1" y2="1">
      <stop offset="0" stop-color="#0d1117"/>
      <stop offset="1" stop-color="#101c26"/>
    </linearGradient>
    <linearGradient id="accent" x1="0" y1="0" x2="1" y2="0">
      <stop offset="0" stop-color="#22d3ee"/>
      <stop offset="1" stop-color="#2dd4bf"/>
    </linearGradient>
    <filter id="soft-glow" x="-30%" y="-30%" width="160%" height="160%">
      <feGaussianBlur stdDeviation="7"/>
    </filter>
  </defs>

  <rect width="1200" height="290" rx="16" fill="url(#surface)"/>
  <rect x="1" y="1" width="1198" height="288" rx="15" fill="none" stroke="#30363d" stroke-width="2"/>
  <path d="M600 30 V260" stroke="#30363d"/>

  <g font-family="Inter, Segoe UI, Arial, sans-serif">
    <g transform="translate(45 38)">
      <circle cx="24" cy="24" r="22" fill="#12333c"/>
      <path d="M17 15 L9 24 L17 33 M31 15 L39 24 L31 33" fill="none" stroke="#2dd4bf" stroke-width="3" stroke-linecap="round" stroke-linejoin="round"/>
      <text x="62" y="19" fill="#7dd3fc" font-size="14" font-weight="700" letter-spacing="2.2">ENGINEERING PORTFOLIO</text>
      <text x="62" y="43" fill="#f0f6fc" font-size="24" font-weight="700">From research to reliable products</text>

      <g transform="translate(0 83)">
        <rect width="245" height="54" rx="9" fill="#111d27" stroke="#28434b"/>
        <circle cx="27" cy="27" r="7" fill="#2dd4bf"/>
        <text x="48" y="24" fill="#f0f6fc" font-size="16" font-weight="600">AI Systems</text>
        <text x="48" y="42" fill="#8b949e" font-size="13">LLMs · Voice · Vision</text>
      </g>
      <g transform="translate(262 83)">
        <rect width="245" height="54" rx="9" fill="#111d27" stroke="#28434b"/>
        <circle cx="27" cy="27" r="7" fill="#22d3ee"/>
        <text x="48" y="24" fill="#f0f6fc" font-size="16" font-weight="600">Backend &amp; Data</text>
        <text x="48" y="42" fill="#8b949e" font-size="13">APIs · ETL · Databases</text>
      </g>
      <g transform="translate(0 153)">
        <rect width="245" height="54" rx="9" fill="#111d27" stroke="#28434b"/>
        <circle cx="27" cy="27" r="7" fill="#38bdf8"/>
        <text x="48" y="24" fill="#f0f6fc" font-size="16" font-weight="600">Applied Research</text>
        <text x="48" y="42" fill="#8b949e" font-size="13">Evaluation · Experiments</text>
      </g>
      <g transform="translate(262 153)">
        <rect width="245" height="54" rx="9" fill="#111d27" stroke="#28434b"/>
        <circle cx="27" cy="27" r="7" fill="#14b8a6"/>
        <text x="48" y="24" fill="#f0f6fc" font-size="16" font-weight="600">Open Learning</text>
        <text x="48" y="42" fill="#8b949e" font-size="13">Projects · AI Education</text>
      </g>
    </g>

    <g transform="translate(645 38)">
      <circle cx="24" cy="24" r="22" fill="#12333c"/>
      <path d="M13 29 C16 18 21 18 24 29 C27 40 32 40 35 24" fill="none" stroke="#22d3ee" stroke-width="3" stroke-linecap="round"/>
      <text x="62" y="19" fill="#7dd3fc" font-size="14" font-weight="700" letter-spacing="2.2">PRIMARY LANGUAGES</text>
      <text x="62" y="43" fill="#f0f6fc" font-size="24" font-weight="700">Built for AI and production</text>

      <g transform="translate(0 83)">
        <rect width="245" height="54" rx="9" fill="#111d27" stroke="#28434b"/>
        <text x="20" y="24" fill="#2dd4bf" font-size="16" font-weight="700">Python</text>
        <text x="20" y="42" fill="#8b949e" font-size="13">AI · APIs · Data</text>
      </g>
      <g transform="translate(262 83)">
        <rect width="245" height="54" rx="9" fill="#111d27" stroke="#28434b"/>
        <text x="20" y="24" fill="#22d3ee" font-size="16" font-weight="700">Jupyter</text>
        <text x="20" y="42" fill="#8b949e" font-size="13">Research · Teaching</text>
      </g>
      <g transform="translate(0 153)">
        <rect width="245" height="54" rx="9" fill="#111d27" stroke="#28434b"/>
        <text x="20" y="24" fill="#38bdf8" font-size="16" font-weight="700">TypeScript</text>
        <text x="20" y="42" fill="#8b949e" font-size="13">Product interfaces</text>
      </g>
      <g transform="translate(262 153)">
        <rect width="245" height="54" rx="9" fill="#111d27" stroke="#28434b"/>
        <text x="20" y="24" fill="#14b8a6" font-size="16" font-weight="700">SQL &amp; Web</text>
        <text x="20" y="42" fill="#8b949e" font-size="13">Data · Full stack</text>
      </g>
      <text x="0" y="237" fill="#8b949e" font-size="12">Representative technologies across featured projects</text>
    </g>
  </g>
</svg>
